<mxfile host="app.diagrams.net" modified="2023-10-30T16:17:04.617Z" agent="Mozilla/5.0 (Macintosh; Intel Mac OS X 10.15; rv:109.0) Gecko/20100101 Firefox/119.0" etag="DknmtV0cxxuJq6570LJ0" version="22.0.8" type="device">
  <diagram id="TRW-s7ThMwkhfqkhL337" name="Page-1">
    <mxGraphModel dx="-434" dy="795" grid="1" gridSize="10" guides="1" tooltips="1" connect="1" arrows="1" fold="1" page="1" pageScale="1" pageWidth="850" pageHeight="1100" math="0" shadow="0">
      <root>
        <mxCell id="0" />
        <mxCell id="1" parent="0" />
        <mxCell id="A4dsCjYomlzCwcdl2sC--1" value="" style="edgeStyle=orthogonalEdgeStyle;rounded=0;orthogonalLoop=1;jettySize=auto;html=1;fontSize=13;fontColor=#000000;strokeWidth=1.5;" parent="1" source="A4dsCjYomlzCwcdl2sC--3" target="A4dsCjYomlzCwcdl2sC--6" edge="1">
          <mxGeometry relative="1" as="geometry" />
        </mxCell>
        <mxCell id="A4dsCjYomlzCwcdl2sC--2" value="" style="edgeStyle=orthogonalEdgeStyle;rounded=0;orthogonalLoop=1;jettySize=auto;html=1;fontSize=13;fontColor=#000000;strokeWidth=1.5;" parent="1" source="A4dsCjYomlzCwcdl2sC--3" target="A4dsCjYomlzCwcdl2sC--24" edge="1">
          <mxGeometry relative="1" as="geometry" />
        </mxCell>
        <mxCell id="A4dsCjYomlzCwcdl2sC--3" value="&lt;div&gt;&lt;font style=&quot;font-size: 12px;&quot;&gt;Full-text articles assessed &lt;br&gt;&lt;/font&gt;&lt;/div&gt;&lt;div&gt;&lt;font style=&quot;font-size: 12px;&quot;&gt;for eligibility&lt;/font&gt;&lt;/div&gt;&lt;div style=&quot;font-size: 10px;&quot;&gt;&lt;font style=&quot;font-size: 10px;&quot;&gt;&lt;i&gt;PS: N = 213 (100%)&lt;br&gt;&lt;/i&gt;&lt;/font&gt;&lt;/div&gt;&lt;div style=&quot;font-size: 10px;&quot;&gt;&lt;font style=&quot;font-size: 10px;&quot;&gt;&lt;i&gt;PO: N = 213 (100%)&lt;/i&gt;&lt;/font&gt;&lt;/div&gt;" style="rounded=0;whiteSpace=wrap;html=1;strokeWidth=1.5;fontColor=#000000;" parent="1" vertex="1">
          <mxGeometry x="2040" y="40" width="190" height="60" as="geometry" />
        </mxCell>
        <mxCell id="A4dsCjYomlzCwcdl2sC--4" value="" style="edgeStyle=orthogonalEdgeStyle;rounded=0;orthogonalLoop=1;jettySize=auto;html=1;fontSize=13;fontColor=#000000;strokeWidth=1.5;" parent="1" source="A4dsCjYomlzCwcdl2sC--6" target="A4dsCjYomlzCwcdl2sC--9" edge="1">
          <mxGeometry relative="1" as="geometry" />
        </mxCell>
        <mxCell id="A4dsCjYomlzCwcdl2sC--5" value="" style="edgeStyle=orthogonalEdgeStyle;rounded=0;orthogonalLoop=1;jettySize=auto;html=1;fontSize=13;fontColor=#000000;strokeWidth=1.5;" parent="1" source="A4dsCjYomlzCwcdl2sC--6" target="A4dsCjYomlzCwcdl2sC--23" edge="1">
          <mxGeometry relative="1" as="geometry" />
        </mxCell>
        <mxCell id="A4dsCjYomlzCwcdl2sC--6" value="&lt;div&gt;&lt;font style=&quot;font-size: 12px;&quot;&gt;Articles with &lt;br&gt;&lt;/font&gt;&lt;/div&gt;&lt;div&gt;&lt;font style=&quot;font-size: 12px;&quot;&gt;quantitative data&lt;/font&gt;&lt;/div&gt;&lt;div style=&quot;font-size: 10px;&quot;&gt;&lt;div style=&quot;&quot;&gt;&lt;font style=&quot;font-size: 10px;&quot;&gt;&lt;i&gt;PS: N = 201 (94%)&lt;br&gt;&lt;/i&gt;&lt;/font&gt;&lt;/div&gt;&lt;font style=&quot;font-size: 10px;&quot;&gt;&lt;i&gt;PO: N = 141 (66%)&lt;br&gt;&lt;/i&gt;&lt;/font&gt;&lt;/div&gt;" style="rounded=0;whiteSpace=wrap;html=1;strokeWidth=1.5;fontColor=#000000;" parent="1" vertex="1">
          <mxGeometry x="2040" y="120" width="190" height="60" as="geometry" />
        </mxCell>
        <mxCell id="A4dsCjYomlzCwcdl2sC--7" value="" style="edgeStyle=orthogonalEdgeStyle;rounded=0;orthogonalLoop=1;jettySize=auto;html=1;fontSize=13;fontColor=#000000;strokeWidth=1.5;" parent="1" source="A4dsCjYomlzCwcdl2sC--9" target="A4dsCjYomlzCwcdl2sC--12" edge="1">
          <mxGeometry relative="1" as="geometry" />
        </mxCell>
        <mxCell id="A4dsCjYomlzCwcdl2sC--8" value="" style="edgeStyle=orthogonalEdgeStyle;rounded=0;orthogonalLoop=1;jettySize=auto;html=1;fontSize=13;fontColor=#000000;strokeWidth=1.5;" parent="1" source="A4dsCjYomlzCwcdl2sC--9" target="A4dsCjYomlzCwcdl2sC--22" edge="1">
          <mxGeometry relative="1" as="geometry" />
        </mxCell>
        <mxCell id="A4dsCjYomlzCwcdl2sC--9" value="&lt;div&gt;&lt;font style=&quot;font-size: 12px;&quot;&gt;Articles with group or &lt;br&gt;&lt;/font&gt;&lt;/div&gt;&lt;div&gt;&lt;font style=&quot;font-size: 12px;&quot;&gt;time comparisons&lt;/font&gt;&lt;/div&gt;&lt;div style=&quot;font-size: 10px;&quot;&gt;&lt;div style=&quot;&quot;&gt;&lt;font style=&quot;font-size: 10px;&quot;&gt;&lt;i&gt;PS: k = 167 (78%)&lt;br&gt;&lt;/i&gt;&lt;/font&gt;&lt;/div&gt;&lt;font style=&quot;font-size: 10px;&quot;&gt;&lt;i&gt;PO: k = 107 (50%)&lt;br&gt;&lt;/i&gt;&lt;/font&gt;&lt;/div&gt;" style="rounded=0;whiteSpace=wrap;html=1;strokeWidth=1.5;fontColor=#000000;" parent="1" vertex="1">
          <mxGeometry x="2040" y="200" width="190" height="60" as="geometry" />
        </mxCell>
        <mxCell id="A4dsCjYomlzCwcdl2sC--10" value="" style="edgeStyle=orthogonalEdgeStyle;rounded=0;orthogonalLoop=1;jettySize=auto;html=1;fontSize=13;fontColor=#000000;strokeWidth=1.5;" parent="1" source="A4dsCjYomlzCwcdl2sC--12" target="A4dsCjYomlzCwcdl2sC--25" edge="1">
          <mxGeometry relative="1" as="geometry" />
        </mxCell>
        <mxCell id="A4dsCjYomlzCwcdl2sC--11" value="" style="edgeStyle=orthogonalEdgeStyle;rounded=0;orthogonalLoop=1;jettySize=auto;html=1;fontSize=12;fontColor=#000000;strokeWidth=1.5;" parent="1" source="A4dsCjYomlzCwcdl2sC--12" target="A4dsCjYomlzCwcdl2sC--21" edge="1">
          <mxGeometry relative="1" as="geometry" />
        </mxCell>
        <mxCell id="A4dsCjYomlzCwcdl2sC--12" value="&lt;font style=&quot;font-size: 12px;&quot;&gt;Articles with scales&lt;br&gt;&lt;/font&gt;&lt;div style=&quot;font-size: 10px;&quot;&gt;&lt;div style=&quot;&quot;&gt;&lt;font style=&quot;font-size: 10px;&quot;&gt;&lt;i&gt;PS: N = 124 (58%)&lt;br&gt;&lt;/i&gt;&lt;/font&gt;&lt;/div&gt;&lt;font style=&quot;font-size: 10px;&quot;&gt;&lt;i&gt;PO: N = 67 (31%)&lt;br&gt;&lt;/i&gt;&lt;/font&gt;&lt;/div&gt;" style="rounded=0;whiteSpace=wrap;html=1;strokeWidth=1.5;fontColor=#000000;" parent="1" vertex="1">
          <mxGeometry x="2040" y="280" width="190" height="60" as="geometry" />
        </mxCell>
        <mxCell id="A4dsCjYomlzCwcdl2sC--13" value="" style="edgeStyle=orthogonalEdgeStyle;rounded=0;orthogonalLoop=1;jettySize=auto;html=1;fontSize=13;fontColor=#000000;strokeWidth=1.5;" parent="1" source="A4dsCjYomlzCwcdl2sC--15" target="A4dsCjYomlzCwcdl2sC--28" edge="1">
          <mxGeometry relative="1" as="geometry" />
        </mxCell>
        <mxCell id="A4dsCjYomlzCwcdl2sC--14" value="" style="edgeStyle=orthogonalEdgeStyle;rounded=0;orthogonalLoop=1;jettySize=auto;html=1;fontSize=12;fontColor=#000000;strokeWidth=1.5;" parent="1" source="A4dsCjYomlzCwcdl2sC--15" target="A4dsCjYomlzCwcdl2sC--56" edge="1">
          <mxGeometry relative="1" as="geometry" />
        </mxCell>
        <mxCell id="A4dsCjYomlzCwcdl2sC--15" value="&lt;font style=&quot;font-size: 13px;&quot;&gt;MI testing reported&lt;br&gt;&lt;/font&gt;&lt;div style=&quot;&quot;&gt;&lt;div style=&quot;&quot;&gt;&lt;font style=&quot;font-size: 10px;&quot;&gt;&lt;i&gt;PS: N = 2 (1%), SMC = 5 (2%)&lt;br&gt;&lt;/i&gt;&lt;/font&gt;&lt;/div&gt;&lt;font style=&quot;font-size: 10px;&quot;&gt;&lt;i&gt;PO: N = 4 (2%), SMC = 34 (5%)&lt;br&gt;&lt;/i&gt;&lt;/font&gt;&lt;/div&gt;" style="rounded=0;whiteSpace=wrap;html=1;strokeWidth=1.5;fontColor=#000000;" parent="1" vertex="1">
          <mxGeometry x="1780" y="490" width="190" height="70" as="geometry" />
        </mxCell>
        <mxCell id="A4dsCjYomlzCwcdl2sC--16" value="" style="edgeStyle=orthogonalEdgeStyle;rounded=0;orthogonalLoop=1;jettySize=auto;html=1;fontSize=13;fontColor=#000000;strokeWidth=1.5;" parent="1" source="A4dsCjYomlzCwcdl2sC--18" target="A4dsCjYomlzCwcdl2sC--34" edge="1">
          <mxGeometry relative="1" as="geometry" />
        </mxCell>
        <mxCell id="A4dsCjYomlzCwcdl2sC--17" value="" style="edgeStyle=orthogonalEdgeStyle;rounded=0;orthogonalLoop=1;jettySize=auto;html=1;fontSize=12;fontColor=#000000;strokeWidth=1.5;" parent="1" source="A4dsCjYomlzCwcdl2sC--18" target="A4dsCjYomlzCwcdl2sC--58" edge="1">
          <mxGeometry relative="1" as="geometry" />
        </mxCell>
        <mxCell id="A4dsCjYomlzCwcdl2sC--18" value="&lt;div&gt;&lt;font style=&quot;font-size: 13px;&quot;&gt;MI testing not reported&lt;/font&gt;&lt;/div&gt;&lt;div style=&quot;font-size: 13px;&quot;&gt;&lt;div style=&quot;&quot;&gt;&lt;div style=&quot;&quot;&gt;&lt;font style=&quot;font-size: 10px;&quot;&gt;&lt;i&gt;PS: N = 45 (21%), SMC = 282 (98%)&lt;br&gt;&lt;/i&gt;&lt;/font&gt;&lt;/div&gt;&lt;font style=&quot;font-size: 10px;&quot;&gt;&lt;i&gt;PO: N = 46 (22%), SMC = 608 (95%)&lt;br&gt;&lt;/i&gt;&lt;/font&gt;&lt;/div&gt;&lt;font style=&quot;font-size: 10px;&quot;&gt;&lt;i&gt;&lt;/i&gt;&lt;/font&gt;&lt;font style=&quot;font-size: 13px;&quot;&gt;&lt;/font&gt;&lt;/div&gt;" style="rounded=0;whiteSpace=wrap;html=1;strokeWidth=1.5;fontColor=#000000;" parent="1" vertex="1">
          <mxGeometry x="2170" y="490" width="190" height="70" as="geometry" />
        </mxCell>
        <mxCell id="A4dsCjYomlzCwcdl2sC--19" value="" style="edgeStyle=orthogonalEdgeStyle;rounded=0;orthogonalLoop=1;jettySize=auto;html=1;fontSize=13;entryX=0.5;entryY=0;entryDx=0;entryDy=0;fontColor=#000000;strokeWidth=1.5;" parent="1" source="A4dsCjYomlzCwcdl2sC--21" target="A4dsCjYomlzCwcdl2sC--15" edge="1">
          <mxGeometry relative="1" as="geometry">
            <Array as="points">
              <mxPoint x="2135" y="470" />
              <mxPoint x="1875" y="470" />
            </Array>
          </mxGeometry>
        </mxCell>
        <mxCell id="A4dsCjYomlzCwcdl2sC--20" value="" style="edgeStyle=orthogonalEdgeStyle;rounded=0;orthogonalLoop=1;jettySize=auto;html=1;fontSize=13;fontColor=#000000;strokeWidth=1.5;" parent="1" source="A4dsCjYomlzCwcdl2sC--21" target="A4dsCjYomlzCwcdl2sC--18" edge="1">
          <mxGeometry relative="1" as="geometry">
            <Array as="points">
              <mxPoint x="2135" y="470" />
              <mxPoint x="2265" y="470" />
            </Array>
          </mxGeometry>
        </mxCell>
        <mxCell id="A4dsCjYomlzCwcdl2sC--21" value="&lt;div&gt;&lt;b&gt;&lt;font style=&quot;font-size: 13px;&quot;&gt;STEP 1: REPORT&lt;/font&gt;&lt;/b&gt;&lt;/div&gt;&lt;div&gt;&lt;font style=&quot;font-size: 13px;&quot;&gt;Scale mean comparisons eligible for further assessment&lt;/font&gt;&lt;/div&gt;&lt;div&gt;&lt;font style=&quot;font-size: 13px;&quot;&gt;&lt;br&gt;&lt;/font&gt;&lt;/div&gt;&lt;div style=&quot;font-size: 10px;&quot;&gt;&lt;div style=&quot;&quot;&gt;&lt;font style=&quot;font-size: 10px;&quot;&gt;&lt;i&gt;PS: N = 46 (22%), SMC = 287 (100%)&lt;br&gt;&lt;/i&gt;&lt;/font&gt;&lt;/div&gt;&lt;font style=&quot;font-size: 10px;&quot;&gt;&lt;i&gt;PO: N = 50 (23%), &lt;/i&gt;&lt;/font&gt;&lt;font style=&quot;font-size: 10px;&quot;&gt;&lt;i&gt;SMC&lt;/i&gt;&lt;/font&gt;&lt;font style=&quot;font-size: 10px;&quot;&gt;&lt;i&gt; = 642 (100%)&lt;br&gt;&lt;/i&gt;&lt;/font&gt;&lt;/div&gt;" style="rounded=0;whiteSpace=wrap;html=1;strokeWidth=1.5;fillColor=#f5f5f5;fontColor=#000000;strokeColor=#000000;" parent="1" vertex="1">
          <mxGeometry x="2040" y="355" width="190" height="100" as="geometry" />
        </mxCell>
        <mxCell id="A4dsCjYomlzCwcdl2sC--22" value="&lt;div style=&quot;font-size: 11px;&quot;&gt;&lt;font style=&quot;font-size: 11px;&quot;&gt;Articles without scales&lt;br&gt;&lt;/font&gt;&lt;/div&gt;&lt;div style=&quot;font-size: 10px;&quot;&gt;&lt;div style=&quot;&quot;&gt;&lt;font style=&quot;font-size: 10px;&quot;&gt;&lt;i&gt;PS: &lt;/i&gt;&lt;/font&gt;&lt;font style=&quot;font-size: 10px;&quot;&gt;&lt;i&gt;N&lt;/i&gt;&lt;/font&gt;&lt;font style=&quot;font-size: 10px;&quot;&gt;&lt;i&gt; = 43 (20%)&lt;/i&gt;&lt;/font&gt;&lt;font style=&quot;font-size: 10px;&quot;&gt;&lt;i&gt;&lt;/i&gt;&lt;/font&gt;&lt;/div&gt;&lt;font style=&quot;font-size: 10px;&quot;&gt;&lt;i&gt;PO: &lt;/i&gt;&lt;/font&gt;&lt;font style=&quot;font-size: 10px;&quot;&gt;&lt;i&gt;N&lt;/i&gt;&lt;/font&gt;&lt;font style=&quot;font-size: 10px;&quot;&gt;&lt;i&gt; = 40 (19%)&lt;br&gt;&lt;/i&gt;&lt;/font&gt;&lt;/div&gt;" style="rounded=1;whiteSpace=wrap;html=1;fontSize=13;strokeWidth=1.5;fontColor=#000000;" parent="1" vertex="1">
          <mxGeometry x="2250" y="202.5" width="150" height="55" as="geometry" />
        </mxCell>
        <mxCell id="A4dsCjYomlzCwcdl2sC--23" value="&lt;div style=&quot;font-size: 11px;&quot;&gt;&lt;font style=&quot;font-size: 11px;&quot;&gt;Articles without &lt;br&gt;&lt;/font&gt;&lt;/div&gt;&lt;div style=&quot;font-size: 11px;&quot;&gt;&lt;font style=&quot;font-size: 11px;&quot;&gt;group comparisons&lt;br&gt;&lt;/font&gt;&lt;/div&gt;&lt;div style=&quot;font-size: 10px;&quot;&gt;&lt;div style=&quot;&quot;&gt;&lt;font style=&quot;font-size: 10px;&quot;&gt;&lt;i&gt;PS: &lt;/i&gt;&lt;/font&gt;&lt;font style=&quot;font-size: 10px;&quot;&gt;&lt;i&gt;N&lt;/i&gt;&lt;/font&gt;&lt;font style=&quot;font-size: 10px;&quot;&gt;&lt;i&gt; = 34 (16%)&lt;br&gt;&lt;/i&gt;&lt;/font&gt;&lt;/div&gt;&lt;font style=&quot;font-size: 10px;&quot;&gt;&lt;i&gt;PO: &lt;/i&gt;&lt;/font&gt;&lt;font style=&quot;font-size: 10px;&quot;&gt;&lt;i&gt;N&lt;/i&gt;&lt;/font&gt;&lt;font style=&quot;font-size: 10px;&quot;&gt;&lt;i&gt; = 34 (16%)&lt;br&gt;&lt;/i&gt;&lt;/font&gt;&lt;/div&gt;" style="rounded=1;whiteSpace=wrap;html=1;fontSize=13;strokeWidth=1.5;fontColor=#000000;" parent="1" vertex="1">
          <mxGeometry x="2250" y="120" width="150" height="60" as="geometry" />
        </mxCell>
        <mxCell id="A4dsCjYomlzCwcdl2sC--24" value="&lt;div style=&quot;font-size: 11px;&quot;&gt;&lt;font style=&quot;font-size: 11px;&quot;&gt;Articles without&amp;nbsp; &lt;br&gt;&lt;/font&gt;&lt;/div&gt;&lt;div style=&quot;font-size: 11px;&quot;&gt;&lt;font style=&quot;font-size: 11px;&quot;&gt;quantitative data&lt;/font&gt;&lt;/div&gt;&lt;div style=&quot;font-size: 10px;&quot;&gt;&lt;div style=&quot;&quot;&gt;&lt;font style=&quot;font-size: 10px;&quot;&gt;&lt;i&gt;PS: N = 12 (6%)&lt;br&gt;&lt;/i&gt;&lt;/font&gt;&lt;/div&gt;&lt;font style=&quot;font-size: 10px;&quot;&gt;&lt;i&gt;PO: N = 72&lt;/i&gt;&lt;/font&gt; (34%)&lt;br&gt;&lt;/div&gt;" style="rounded=1;whiteSpace=wrap;html=1;fontSize=13;strokeWidth=1.5;fontColor=#000000;" parent="1" vertex="1">
          <mxGeometry x="2250" y="40" width="150" height="60" as="geometry" />
        </mxCell>
        <mxCell id="A4dsCjYomlzCwcdl2sC--25" value="&lt;div style=&quot;font-size: 11px;&quot;&gt;&lt;font style=&quot;font-size: 11px;&quot;&gt;Articles without &lt;br&gt;&lt;/font&gt;&lt;/div&gt;&lt;div style=&quot;font-size: 11px;&quot;&gt;&lt;font style=&quot;font-size: 11px;&quot;&gt;&lt;font style=&quot;font-size: 11px;&quot;&gt;reflective scales&lt;/font&gt;&lt;br&gt;&lt;/font&gt;&lt;/div&gt;&lt;div style=&quot;font-size: 10px;&quot;&gt;&lt;div style=&quot;&quot;&gt;&lt;font style=&quot;font-size: 10px;&quot;&gt;&lt;i&gt;PS: &lt;/i&gt;&lt;/font&gt;&lt;font style=&quot;font-size: 10px;&quot;&gt;&lt;i&gt;N&lt;/i&gt;&lt;/font&gt;&lt;font style=&quot;font-size: 10px;&quot;&gt;&lt;i&gt; = 78 (37%)&lt;br&gt;&lt;/i&gt;&lt;/font&gt;&lt;/div&gt;&lt;font style=&quot;font-size: 10px;&quot;&gt;&lt;i&gt;PO: &lt;/i&gt;&lt;/font&gt;&lt;font style=&quot;font-size: 10px;&quot;&gt;&lt;i&gt;N&lt;/i&gt;&lt;/font&gt;&lt;font style=&quot;font-size: 10px;&quot;&gt;&lt;i&gt; = 17 (8%)&lt;br&gt;&lt;/i&gt;&lt;/font&gt;&lt;/div&gt;" style="rounded=1;whiteSpace=wrap;html=1;fontSize=13;strokeWidth=1.5;fontColor=#000000;" parent="1" vertex="1">
          <mxGeometry x="2250" y="280" width="150" height="60" as="geometry" />
        </mxCell>
        <mxCell id="A4dsCjYomlzCwcdl2sC--26" value="" style="edgeStyle=orthogonalEdgeStyle;rounded=0;orthogonalLoop=1;jettySize=auto;html=1;fontSize=13;fontColor=#000000;strokeWidth=1.5;" parent="1" source="A4dsCjYomlzCwcdl2sC--28" target="A4dsCjYomlzCwcdl2sC--31" edge="1">
          <mxGeometry relative="1" as="geometry" />
        </mxCell>
        <mxCell id="A4dsCjYomlzCwcdl2sC--27" value="" style="edgeStyle=orthogonalEdgeStyle;rounded=0;orthogonalLoop=1;jettySize=auto;html=1;fontSize=12;fontColor=#000000;strokeWidth=1.5;" parent="1" source="A4dsCjYomlzCwcdl2sC--28" target="A4dsCjYomlzCwcdl2sC--57" edge="1">
          <mxGeometry relative="1" as="geometry" />
        </mxCell>
        <mxCell id="A4dsCjYomlzCwcdl2sC--28" value="&lt;font style=&quot;font-size: 13px;&quot;&gt;Data available&lt;br&gt;&lt;/font&gt;&lt;div style=&quot;font-size: 13px;&quot;&gt;&lt;div style=&quot;&quot;&gt;&lt;div style=&quot;&quot;&gt;&lt;font style=&quot;font-size: 10px;&quot;&gt;&lt;i&gt;PS: N = 1 (0%), SMC = 1 (0%)&lt;br&gt;&lt;/i&gt;&lt;/font&gt;&lt;/div&gt;&lt;font style=&quot;font-size: 10px;&quot;&gt;&lt;i&gt;PO: N = 3 (1%), SMC = 4 (1%)&lt;/i&gt;&lt;/font&gt;&lt;/div&gt;&lt;font style=&quot;font-size: 10px;&quot;&gt;&lt;i&gt;&lt;/i&gt;&lt;/font&gt;&lt;font style=&quot;font-size: 10px;&quot;&gt;&lt;i&gt;&lt;/i&gt;&lt;/font&gt;&lt;/div&gt;" style="rounded=0;whiteSpace=wrap;html=1;strokeWidth=1.5;fontColor=#000000;" parent="1" vertex="1">
          <mxGeometry x="1780" y="580" width="190" height="70" as="geometry" />
        </mxCell>
        <mxCell id="A4dsCjYomlzCwcdl2sC--29" value="" style="edgeStyle=orthogonalEdgeStyle;rounded=0;orthogonalLoop=1;jettySize=auto;html=1;fontSize=13;fontColor=#000000;strokeWidth=1.5;" parent="1" source="A4dsCjYomlzCwcdl2sC--31" target="A4dsCjYomlzCwcdl2sC--50" edge="1">
          <mxGeometry relative="1" as="geometry" />
        </mxCell>
        <mxCell id="A4dsCjYomlzCwcdl2sC--30" style="edgeStyle=orthogonalEdgeStyle;rounded=0;orthogonalLoop=1;jettySize=auto;html=1;entryX=0.5;entryY=0;entryDx=0;entryDy=0;fontSize=10;fontColor=#000000;strokeWidth=1.5;" parent="1" source="A4dsCjYomlzCwcdl2sC--31" target="A4dsCjYomlzCwcdl2sC--52" edge="1">
          <mxGeometry relative="1" as="geometry" />
        </mxCell>
        <mxCell id="A4dsCjYomlzCwcdl2sC--31" value="&lt;font style=&quot;font-size: 13px;&quot;&gt;Can test for MI&lt;br&gt;&lt;/font&gt;&lt;div style=&quot;&quot;&gt;&lt;div style=&quot;&quot;&gt;&lt;font style=&quot;font-size: 10px;&quot;&gt;&lt;i&gt;PS: N = 1 (0%), SMC = 1 (0%)&lt;br&gt;&lt;/i&gt;&lt;/font&gt;&lt;/div&gt;&lt;font style=&quot;font-size: 10px;&quot;&gt;&lt;i&gt;PO: N = 2 (1%), SMC = 3 (0%)&lt;/i&gt;&lt;/font&gt;&lt;font style=&quot;font-size: 12px;&quot;&gt;&lt;br&gt;&lt;/font&gt;&lt;/div&gt;" style="rounded=0;whiteSpace=wrap;html=1;strokeWidth=1.5;fontColor=#000000;" parent="1" vertex="1">
          <mxGeometry x="1780" y="670" width="190" height="70" as="geometry" />
        </mxCell>
        <mxCell id="A4dsCjYomlzCwcdl2sC--32" value="" style="edgeStyle=orthogonalEdgeStyle;rounded=0;orthogonalLoop=1;jettySize=auto;html=1;fontSize=13;fontColor=#000000;strokeWidth=1.5;" parent="1" source="A4dsCjYomlzCwcdl2sC--34" target="A4dsCjYomlzCwcdl2sC--37" edge="1">
          <mxGeometry relative="1" as="geometry" />
        </mxCell>
        <mxCell id="A4dsCjYomlzCwcdl2sC--33" value="" style="edgeStyle=orthogonalEdgeStyle;rounded=0;orthogonalLoop=1;jettySize=auto;html=1;fontSize=14;fontColor=#000000;strokeWidth=1.5;" parent="1" source="A4dsCjYomlzCwcdl2sC--34" target="A4dsCjYomlzCwcdl2sC--59" edge="1">
          <mxGeometry relative="1" as="geometry" />
        </mxCell>
        <mxCell id="A4dsCjYomlzCwcdl2sC--34" value="&lt;div&gt;&lt;font style=&quot;font-size: 13px;&quot;&gt;No. items, reliability, sample &lt;br&gt;&lt;/font&gt;&lt;/div&gt;&lt;div&gt;&lt;font style=&quot;font-size: 13px;&quot;&gt;size reported&lt;/font&gt;&lt;/div&gt;&lt;div style=&quot;&quot;&gt;&lt;div style=&quot;&quot;&gt;&lt;font style=&quot;font-size: 10px;&quot;&gt;&lt;i&gt;PS: N = 26 (12%), SMC = 177 (62%)&lt;br&gt;&lt;/i&gt;&lt;/font&gt;&lt;/div&gt;&lt;font style=&quot;font-size: 10px;&quot;&gt;&lt;i&gt;PO: N = 11 (5%), SMC = 158 (25%)&lt;/i&gt;&lt;/font&gt;&lt;/div&gt;" style="rounded=0;whiteSpace=wrap;html=1;strokeWidth=1.5;fontColor=#000000;" parent="1" vertex="1">
          <mxGeometry x="2170" y="585" width="190" height="65" as="geometry" />
        </mxCell>
        <mxCell id="A4dsCjYomlzCwcdl2sC--35" value="" style="edgeStyle=orthogonalEdgeStyle;rounded=0;orthogonalLoop=1;jettySize=auto;html=1;fontSize=13;fontColor=#000000;strokeWidth=1.5;" parent="1" source="A4dsCjYomlzCwcdl2sC--37" target="A4dsCjYomlzCwcdl2sC--45" edge="1">
          <mxGeometry relative="1" as="geometry" />
        </mxCell>
        <mxCell id="A4dsCjYomlzCwcdl2sC--36" value="" style="edgeStyle=orthogonalEdgeStyle;rounded=0;orthogonalLoop=1;jettySize=auto;html=1;fontSize=14;fontColor=#000000;strokeWidth=1.5;" parent="1" source="A4dsCjYomlzCwcdl2sC--37" target="A4dsCjYomlzCwcdl2sC--60" edge="1">
          <mxGeometry relative="1" as="geometry" />
        </mxCell>
        <mxCell id="A4dsCjYomlzCwcdl2sC--37" value="&lt;div&gt;&lt;font style=&quot;font-size: 13px;&quot;&gt;Power to detect moderate &lt;br&gt;&lt;/font&gt;&lt;/div&gt;&lt;div&gt;&lt;font style=&quot;font-size: 13px;&quot;&gt;non-invariance &lt;u&gt;&amp;gt;&lt;/u&gt; .80&lt;/font&gt;&lt;/div&gt;&lt;div style=&quot;font-size: 13px;&quot;&gt;&lt;div style=&quot;&quot;&gt;&lt;div style=&quot;&quot;&gt;&lt;font style=&quot;font-size: 10px;&quot;&gt;&lt;i&gt;PS: N = 25 (12%), SMC = 171 (60%)&lt;br&gt;&lt;/i&gt;&lt;/font&gt;&lt;/div&gt;&lt;font style=&quot;font-size: 10px;&quot;&gt;&lt;i&gt;PO: N = 10 (5%), SMC = 151 (24%)&lt;/i&gt;&lt;/font&gt;&lt;/div&gt;&lt;font style=&quot;font-size: 10px;&quot;&gt;&lt;i&gt;&lt;/i&gt;&lt;/font&gt;&lt;font style=&quot;font-size: 13px;&quot;&gt;&lt;i&gt;&lt;/i&gt;&lt;/font&gt;&lt;/div&gt;" style="rounded=0;whiteSpace=wrap;html=1;strokeWidth=1.5;fontColor=#000000;" parent="1" vertex="1">
          <mxGeometry x="2170" y="670" width="190" height="70" as="geometry" />
        </mxCell>
        <mxCell id="A4dsCjYomlzCwcdl2sC--38" style="edgeStyle=orthogonalEdgeStyle;rounded=0;orthogonalLoop=1;jettySize=auto;html=1;entryX=0.5;entryY=0;entryDx=0;entryDy=0;fontSize=14;fontColor=#000000;strokeWidth=1.5;" parent="1" source="A4dsCjYomlzCwcdl2sC--42" target="A4dsCjYomlzCwcdl2sC--48" edge="1">
          <mxGeometry relative="1" as="geometry">
            <Array as="points">
              <mxPoint x="2265" y="940" />
              <mxPoint x="2115" y="940" />
            </Array>
          </mxGeometry>
        </mxCell>
        <mxCell id="A4dsCjYomlzCwcdl2sC--39" style="edgeStyle=orthogonalEdgeStyle;rounded=0;orthogonalLoop=1;jettySize=auto;html=1;entryX=0.5;entryY=0;entryDx=0;entryDy=0;fontSize=14;fontColor=#000000;strokeWidth=1.5;" parent="1" source="A4dsCjYomlzCwcdl2sC--42" target="A4dsCjYomlzCwcdl2sC--46" edge="1">
          <mxGeometry relative="1" as="geometry">
            <Array as="points">
              <mxPoint x="2265" y="940" />
              <mxPoint x="2230" y="940" />
            </Array>
          </mxGeometry>
        </mxCell>
        <mxCell id="A4dsCjYomlzCwcdl2sC--40" style="edgeStyle=orthogonalEdgeStyle;rounded=0;orthogonalLoop=1;jettySize=auto;html=1;entryX=0.5;entryY=0;entryDx=0;entryDy=0;fontSize=14;fontColor=#000000;strokeWidth=1.5;" parent="1" source="A4dsCjYomlzCwcdl2sC--42" target="A4dsCjYomlzCwcdl2sC--47" edge="1">
          <mxGeometry relative="1" as="geometry">
            <Array as="points">
              <mxPoint x="2265" y="940" />
              <mxPoint x="2350" y="940" />
            </Array>
          </mxGeometry>
        </mxCell>
        <mxCell id="A4dsCjYomlzCwcdl2sC--41" style="edgeStyle=orthogonalEdgeStyle;rounded=0;orthogonalLoop=1;jettySize=auto;html=1;fontSize=14;fontColor=#000000;strokeWidth=1.5;" parent="1" source="A4dsCjYomlzCwcdl2sC--42" target="A4dsCjYomlzCwcdl2sC--49" edge="1">
          <mxGeometry relative="1" as="geometry">
            <Array as="points">
              <mxPoint x="2265" y="940" />
              <mxPoint x="2465" y="940" />
            </Array>
          </mxGeometry>
        </mxCell>
        <mxCell id="A4dsCjYomlzCwcdl2sC--42" value="&lt;div style=&quot;font-size: 13px;&quot;&gt;&lt;font style=&quot;font-size: 13px;&quot;&gt;&lt;b&gt;STEP 4: REUSE&lt;/b&gt;&lt;br&gt;&lt;/font&gt;&lt;/div&gt;&lt;div style=&quot;font-size: 13px;&quot;&gt;&lt;font style=&quot;font-size: 13px;&quot;&gt;Can test for MI&lt;/font&gt;&lt;/div&gt;&lt;div style=&quot;font-size: 13px;&quot;&gt;&lt;font style=&quot;font-size: 13px;&quot;&gt;&lt;br&gt;&lt;/font&gt;&lt;/div&gt;&lt;div style=&quot;font-size: 13px;&quot;&gt;&lt;div style=&quot;&quot;&gt;&lt;div style=&quot;&quot;&gt;&lt;font style=&quot;font-size: 10px;&quot;&gt;&lt;i&gt;PS: N = 23 (11%), SMC = 161 (56%)&lt;br&gt;&lt;/i&gt;&lt;/font&gt;&lt;/div&gt;&lt;font style=&quot;font-size: 10px;&quot;&gt;&lt;i&gt;PO: N = 3 (1%), SMC = 13 (2%)&lt;/i&gt;&lt;/font&gt;&lt;/div&gt;&lt;/div&gt;" style="rounded=0;whiteSpace=wrap;html=1;strokeWidth=1.5;fillColor=#f5f5f5;fontColor=#000000;strokeColor=#000000;" parent="1" vertex="1">
          <mxGeometry x="2170" y="842.5" width="190" height="85" as="geometry" />
        </mxCell>
        <mxCell id="A4dsCjYomlzCwcdl2sC--43" value="" style="edgeStyle=orthogonalEdgeStyle;rounded=0;orthogonalLoop=1;jettySize=auto;html=1;fontSize=13;fontColor=#000000;strokeWidth=1.5;" parent="1" source="A4dsCjYomlzCwcdl2sC--45" target="A4dsCjYomlzCwcdl2sC--42" edge="1">
          <mxGeometry relative="1" as="geometry" />
        </mxCell>
        <mxCell id="A4dsCjYomlzCwcdl2sC--44" value="" style="edgeStyle=orthogonalEdgeStyle;rounded=0;orthogonalLoop=1;jettySize=auto;html=1;fontSize=14;fontColor=#000000;strokeWidth=1.5;" parent="1" source="A4dsCjYomlzCwcdl2sC--45" target="A4dsCjYomlzCwcdl2sC--61" edge="1">
          <mxGeometry relative="1" as="geometry" />
        </mxCell>
        <mxCell id="A4dsCjYomlzCwcdl2sC--45" value="&lt;font style=&quot;font-size: 13px;&quot;&gt;Data available&lt;br&gt;&lt;/font&gt;&lt;div style=&quot;font-size: 13px;&quot;&gt;&lt;div style=&quot;&quot;&gt;&lt;font style=&quot;font-size: 10px;&quot;&gt;&lt;i&gt;PS: N = 25 (12%), SMC = 170 (59%)&lt;br&gt;&lt;/i&gt;&lt;/font&gt;&lt;/div&gt;&lt;font style=&quot;font-size: 10px;&quot;&gt;&lt;i&gt;PO: N = 7 (3%), SMC = 79 (12%)&lt;br&gt;&lt;/i&gt;&lt;/font&gt;&lt;/div&gt;" style="rounded=0;whiteSpace=wrap;html=1;strokeWidth=1.5;fontColor=#000000;" parent="1" vertex="1">
          <mxGeometry x="2170" y="760" width="190" height="60" as="geometry" />
        </mxCell>
        <mxCell id="A4dsCjYomlzCwcdl2sC--46" value="&lt;div&gt;&lt;b&gt;Configural &lt;br&gt;&lt;/b&gt;&lt;/div&gt;&lt;div&gt;&lt;b&gt;invariance&lt;/b&gt;&lt;/div&gt;&lt;div style=&quot;&quot;&gt;&lt;font style=&quot;font-size: 10px;&quot;&gt;&lt;i&gt;PS: &lt;br&gt;&lt;/i&gt;&lt;/font&gt;&lt;/div&gt;&lt;div style=&quot;&quot;&gt;&lt;font style=&quot;font-size: 10px;&quot;&gt;&lt;i&gt;N = 7 (3%)&lt;/i&gt;&lt;/font&gt;&lt;/div&gt;&lt;font style=&quot;font-size: 10px;&quot;&gt;&lt;i&gt; SMC = 14 (5%)&lt;/i&gt;&lt;/font&gt;&lt;div style=&quot;&quot;&gt;&lt;font style=&quot;font-size: 10px;&quot;&gt;&lt;i&gt;PO: &lt;br&gt;&lt;/i&gt;&lt;/font&gt;&lt;/div&gt;&lt;div style=&quot;&quot;&gt;&lt;font style=&quot;font-size: 10px;&quot;&gt;&lt;i&gt;N = 0 (0%)&lt;/i&gt;&lt;/font&gt;&lt;/div&gt;&lt;font style=&quot;font-size: 10px;&quot;&gt;&lt;i&gt; SMC = 0 (0%)&lt;/i&gt;&lt;/font&gt;&lt;div style=&quot;&quot;&gt;&lt;font style=&quot;font-size: 9.5px;&quot;&gt;&lt;i&gt;&lt;/i&gt;&lt;/font&gt;&lt;/div&gt;" style="rounded=0;whiteSpace=wrap;html=1;strokeWidth=1.5;fillColor=#FFC1A6;strokeColor=#d79b00;fontColor=#000000;" parent="1" vertex="1">
          <mxGeometry x="2170" y="970" width="120" height="125" as="geometry" />
        </mxCell>
        <mxCell id="A4dsCjYomlzCwcdl2sC--47" value="&lt;div&gt;&lt;b&gt;Metric &lt;br&gt;&lt;/b&gt;&lt;/div&gt;&lt;div&gt;&lt;b&gt;invariance&lt;/b&gt;&lt;/div&gt;&lt;div style=&quot;&quot;&gt;&lt;font style=&quot;font-size: 10px;&quot;&gt;&lt;i&gt;PS: &lt;br&gt;&lt;/i&gt;&lt;/font&gt;&lt;/div&gt;&lt;div style=&quot;&quot;&gt;&lt;font style=&quot;font-size: 10px;&quot;&gt;&lt;i&gt;N = 7 (3%)&lt;/i&gt;&lt;/font&gt;&lt;/div&gt;&lt;font style=&quot;font-size: 10px;&quot;&gt;&lt;i&gt; SMC = 14 (5%)&lt;/i&gt;&lt;/font&gt;&lt;div style=&quot;&quot;&gt;&lt;font style=&quot;font-size: 10px;&quot;&gt;&lt;i&gt;PO: &lt;br&gt;&lt;/i&gt;&lt;/font&gt;&lt;/div&gt;&lt;div style=&quot;&quot;&gt;&lt;font style=&quot;font-size: 10px;&quot;&gt;&lt;i&gt;N = 0 (0%)&lt;/i&gt;&lt;/font&gt;&lt;/div&gt;&lt;font style=&quot;font-size: 10px;&quot;&gt;&lt;i&gt; SMC = 0 (0%)&lt;/i&gt;&lt;/font&gt;" style="rounded=0;whiteSpace=wrap;html=1;strokeWidth=1.5;fillColor=#FFE59E;strokeColor=#d6b656;fontColor=#000000;" parent="1" vertex="1">
          <mxGeometry x="2290" y="970" width="120" height="125" as="geometry" />
        </mxCell>
        <mxCell id="A4dsCjYomlzCwcdl2sC--48" value="&lt;div&gt;&lt;b&gt;Non-configural invariance&lt;/b&gt;&lt;/div&gt;&lt;div style=&quot;&quot;&gt;&lt;font style=&quot;font-size: 10px;&quot;&gt;&lt;i&gt;PS: &lt;br&gt;&lt;/i&gt;&lt;/font&gt;&lt;/div&gt;&lt;div style=&quot;&quot;&gt;&lt;font style=&quot;font-size: 10px;&quot;&gt;&lt;i&gt;N = 16 (8%)&lt;/i&gt;&lt;/font&gt;&lt;/div&gt;&lt;font style=&quot;font-size: 10px;&quot;&gt;&lt;i&gt; SMC = 88 (31%)&lt;/i&gt;&lt;/font&gt;&lt;div style=&quot;&quot;&gt;&lt;font style=&quot;font-size: 10px;&quot;&gt;&lt;i&gt;PO: &lt;br&gt;&lt;/i&gt;&lt;/font&gt;&lt;/div&gt;&lt;div style=&quot;&quot;&gt;&lt;font style=&quot;font-size: 10px;&quot;&gt;&lt;i&gt;N = 3 (1%)&lt;/i&gt;&lt;/font&gt;&lt;/div&gt;&lt;font style=&quot;font-size: 10px;&quot;&gt;&lt;i&gt; SMC = 13 (2%)&lt;/i&gt;&lt;/font&gt;" style="rounded=0;whiteSpace=wrap;html=1;strokeWidth=1.5;fillColor=#F89797;strokeColor=#b85450;fontColor=#000000;" parent="1" vertex="1">
          <mxGeometry x="2060" y="970" width="110" height="125" as="geometry" />
        </mxCell>
        <mxCell id="A4dsCjYomlzCwcdl2sC--49" value="&lt;div&gt;&lt;b&gt;Scalar &lt;br&gt;&lt;/b&gt;&lt;/div&gt;&lt;div&gt;&lt;b&gt;invariance&lt;/b&gt;&lt;/div&gt;&lt;div style=&quot;&quot;&gt;&lt;font style=&quot;font-size: 10px;&quot;&gt;&lt;i&gt;PS: &lt;br&gt;&lt;/i&gt;&lt;/font&gt;&lt;/div&gt;&lt;div style=&quot;&quot;&gt;&lt;font style=&quot;font-size: 10px;&quot;&gt;&lt;i&gt;N = 14 (7%)&lt;/i&gt;&lt;/font&gt;&lt;/div&gt;&lt;font style=&quot;font-size: 10px;&quot;&gt;&lt;i&gt; SMC = 45 (16%)&lt;/i&gt;&lt;/font&gt;&lt;div style=&quot;&quot;&gt;&lt;font style=&quot;font-size: 10px;&quot;&gt;&lt;i&gt;PO: &lt;br&gt;&lt;/i&gt;&lt;/font&gt;&lt;/div&gt;&lt;div style=&quot;&quot;&gt;&lt;font style=&quot;font-size: 10px;&quot;&gt;&lt;i&gt;N = 0 (0%)&lt;/i&gt;&lt;/font&gt;&lt;/div&gt;&lt;font style=&quot;font-size: 10px;&quot;&gt;&lt;i&gt; SMC = 0 (0%)&lt;/i&gt;&lt;/font&gt;" style="rounded=0;whiteSpace=wrap;html=1;strokeWidth=1.5;fillColor=#D5E8E1;strokeColor=#82b366;fontColor=#000000;" parent="1" vertex="1">
          <mxGeometry x="2410" y="970" width="110" height="125" as="geometry" />
        </mxCell>
        <mxCell id="A4dsCjYomlzCwcdl2sC--50" value="&lt;div&gt;&lt;font style=&quot;font-size: 13px;&quot;&gt;&lt;b&gt;STEP 2: REPRODUCE&lt;/b&gt;&lt;br&gt;&lt;/font&gt;&lt;/div&gt;&lt;div&gt;&lt;font style=&quot;font-size: 13px;&quot;&gt;MI result reproduced&lt;/font&gt;&lt;/div&gt;&lt;div style=&quot;&quot;&gt;&lt;div style=&quot;&quot;&gt;&lt;div style=&quot;&quot;&gt;&lt;font style=&quot;font-size: 10px;&quot;&gt;&lt;i&gt;&lt;br&gt;&lt;/i&gt;&lt;/font&gt;&lt;/div&gt;&lt;div style=&quot;&quot;&gt;&lt;font style=&quot;font-size: 10px;&quot;&gt;&lt;i&gt;PS: N = 0 (0%), SMC = 0 (0%)&lt;br&gt;&lt;/i&gt;&lt;/font&gt;&lt;/div&gt;&lt;font style=&quot;font-size: 10px;&quot;&gt;&lt;i&gt;PO: N = 0 (0%), SMC = 0 (0%)&lt;/i&gt;&lt;/font&gt;&lt;/div&gt;&lt;font style=&quot;font-size: 10px;&quot;&gt;&lt;i&gt;&lt;/i&gt;&lt;/font&gt;&lt;font style=&quot;font-size: 12px;&quot;&gt;&lt;i&gt;&lt;/i&gt;&lt;/font&gt;&lt;/div&gt;" style="rounded=0;whiteSpace=wrap;html=1;strokeWidth=1.5;fillColor=#f5f5f5;fontColor=#000000;strokeColor=#000000;" parent="1" vertex="1">
          <mxGeometry x="1710" y="785" width="180" height="85" as="geometry" />
        </mxCell>
        <mxCell id="A4dsCjYomlzCwcdl2sC--51" value="" style="edgeStyle=orthogonalEdgeStyle;rounded=0;orthogonalLoop=1;jettySize=auto;html=1;fontSize=13;entryX=0.5;entryY=0;entryDx=0;entryDy=0;fontColor=#000000;strokeWidth=1.5;" parent="1" source="A4dsCjYomlzCwcdl2sC--52" target="A4dsCjYomlzCwcdl2sC--55" edge="1">
          <mxGeometry relative="1" as="geometry">
            <mxPoint x="1995" y="895" as="targetPoint" />
          </mxGeometry>
        </mxCell>
        <mxCell id="A4dsCjYomlzCwcdl2sC--52" value="&lt;div&gt;&lt;font style=&quot;font-size: 13px;&quot;&gt;&lt;b&gt;STEP 3: REASSESS&lt;/b&gt;&lt;br&gt;&lt;/font&gt;&lt;/div&gt;&lt;div&gt;&lt;font style=&quot;font-size: 13px;&quot;&gt;MI result not reproduced&lt;/font&gt;&lt;/div&gt;&lt;div style=&quot;&quot;&gt;&lt;div style=&quot;&quot;&gt;&lt;div style=&quot;&quot;&gt;&lt;font style=&quot;font-size: 10px;&quot;&gt;&lt;i&gt;&lt;br&gt;&lt;/i&gt;&lt;/font&gt;&lt;/div&gt;&lt;div style=&quot;&quot;&gt;&lt;font style=&quot;font-size: 10px;&quot;&gt;&lt;i&gt;PS: N = 1 (0%), SMC = 1 (0%)&lt;br&gt;&lt;/i&gt;&lt;/font&gt;&lt;/div&gt;&lt;font style=&quot;font-size: 10px;&quot;&gt;&lt;i&gt;PO: N = 2 (1%), SMC = 3 (0%)&lt;/i&gt;&lt;/font&gt;&lt;/div&gt;&lt;font style=&quot;font-size: 10px;&quot;&gt;&lt;i&gt;&lt;/i&gt;&lt;/font&gt;&lt;font style=&quot;font-size: 12px;&quot;&gt;&lt;/font&gt;&lt;/div&gt;" style="rounded=0;whiteSpace=wrap;html=1;strokeWidth=1.5;fillColor=#f5f5f5;fontColor=#000000;strokeColor=#000000;" parent="1" vertex="1">
          <mxGeometry x="1905" y="785" width="180" height="85" as="geometry" />
        </mxCell>
        <mxCell id="A4dsCjYomlzCwcdl2sC--55" value="&lt;b&gt;Non-configural invariance&lt;/b&gt;&lt;br&gt;&lt;div style=&quot;&quot;&gt;&lt;font style=&quot;font-size: 10px;&quot;&gt;&lt;i&gt;PS: &lt;br&gt;&lt;/i&gt;&lt;/font&gt;&lt;/div&gt;&lt;div style=&quot;&quot;&gt;&lt;font style=&quot;font-size: 10px;&quot;&gt;&lt;i&gt;N = 1 (0%)&lt;/i&gt;&lt;/font&gt;&lt;/div&gt;&lt;font style=&quot;font-size: 10px;&quot;&gt;&lt;i&gt; SMC = 1 (0%)&lt;/i&gt;&lt;/font&gt;&lt;div style=&quot;&quot;&gt;&lt;font style=&quot;font-size: 10px;&quot;&gt;&lt;i&gt;PO: &lt;br&gt;&lt;/i&gt;&lt;/font&gt;&lt;/div&gt;&lt;div style=&quot;&quot;&gt;&lt;font style=&quot;font-size: 10px;&quot;&gt;&lt;i&gt;N = 1 (0%)&lt;/i&gt;&lt;/font&gt;&lt;/div&gt;&lt;font style=&quot;font-size: 10px;&quot;&gt;&lt;i&gt; SMC = 1 (0%)&lt;/i&gt;&lt;/font&gt;" style="rounded=0;whiteSpace=wrap;html=1;strokeWidth=1.5;fillColor=#F89797;strokeColor=#b85450;fontColor=#000000;" parent="1" vertex="1">
          <mxGeometry x="1940" y="970" width="110" height="125" as="geometry" />
        </mxCell>
        <mxCell id="A4dsCjYomlzCwcdl2sC--56" value="&lt;div style=&quot;&quot;&gt;&lt;font style=&quot;font-size: 13px;&quot;&gt;No data available&lt;/font&gt;&lt;/div&gt;&lt;div style=&quot;&quot;&gt;&lt;div style=&quot;&quot;&gt;&lt;div style=&quot;&quot;&gt;&lt;font style=&quot;font-size: 10px;&quot;&gt;&lt;i&gt;PS: N = 1 (0%), SMC = 4 (1%)&lt;br&gt;&lt;/i&gt;&lt;/font&gt;&lt;/div&gt;&lt;font style=&quot;font-size: 10px;&quot;&gt;&lt;i&gt;PO: N = 1 (0%), SMC = 30 (5%)&lt;/i&gt;&lt;/font&gt;&lt;/div&gt;&lt;font style=&quot;font-size: 10px;&quot;&gt;&lt;i&gt;&lt;/i&gt;&lt;/font&gt;&lt;font style=&quot;font-size: 13px;&quot;&gt;&lt;/font&gt;&lt;/div&gt;" style="rounded=1;whiteSpace=wrap;html=1;fontSize=13;strokeWidth=1.5;fontColor=#000000;" parent="1" vertex="1">
          <mxGeometry x="1990" y="498.75" width="150" height="52.5" as="geometry" />
        </mxCell>
        <mxCell id="A4dsCjYomlzCwcdl2sC--57" value="&lt;div&gt;Cannot test for MI&lt;br&gt;&lt;/div&gt;&lt;div&gt;&lt;div style=&quot;&quot;&gt;&lt;div style=&quot;&quot;&gt;&lt;font style=&quot;font-size: 10px;&quot;&gt;&lt;i&gt;PS: N = 0 (0%), SMC = 0 (0%)&lt;br&gt;&lt;/i&gt;&lt;/font&gt;&lt;/div&gt;&lt;font style=&quot;font-size: 10px;&quot;&gt;&lt;i&gt;PO: N = 1 (0%), SMC = 1 (0%)&lt;/i&gt;&lt;/font&gt;&lt;/div&gt;&lt;font style=&quot;font-size: 10px;&quot;&gt;&lt;i&gt;&lt;/i&gt;&lt;/font&gt;&lt;/div&gt;" style="rounded=1;whiteSpace=wrap;html=1;fontSize=13;strokeWidth=1.5;fontColor=#000000;" parent="1" vertex="1">
          <mxGeometry x="1990" y="588.75" width="150" height="52.5" as="geometry" />
        </mxCell>
        <mxCell id="A4dsCjYomlzCwcdl2sC--58" value="&lt;div style=&quot;font-size: 12px;&quot;&gt;&lt;div style=&quot;font-size: 12px;&quot;&gt;&lt;font style=&quot;font-size: 12px;&quot;&gt;No. items, reliability, sample &lt;/font&gt;&lt;font style=&quot;font-size: 12px;&quot;&gt;size not reported&lt;/font&gt;&lt;/div&gt;&lt;/div&gt;&lt;div style=&quot;font-size: 12px;&quot;&gt;&lt;div style=&quot;&quot;&gt;&lt;div style=&quot;&quot;&gt;&lt;div style=&quot;&quot;&gt;&lt;font style=&quot;font-size: 10px;&quot;&gt;&lt;i&gt;PS: N = 19 (9%), SMC = 105 (37%)&lt;br&gt;&lt;/i&gt;&lt;/font&gt;&lt;/div&gt;&lt;font style=&quot;font-size: 10px;&quot;&gt;&lt;i&gt;PO: N = 35 (16%), SMC = 450 (70%)&lt;/i&gt;&lt;/font&gt;&lt;/div&gt;&lt;/div&gt;&lt;font style=&quot;font-size: 12px;&quot;&gt;&lt;/font&gt;&lt;/div&gt;" style="rounded=1;whiteSpace=wrap;html=1;fontSize=13;strokeWidth=1.5;fontColor=#000000;" parent="1" vertex="1">
          <mxGeometry x="2380" y="483.75" width="170" height="82.5" as="geometry" />
        </mxCell>
        <mxCell id="A4dsCjYomlzCwcdl2sC--59" value="&lt;div style=&quot;font-size: 12px;&quot;&gt;&lt;font style=&quot;font-size: 12px;&quot;&gt;Power to detect moderate&amp;nbsp;&amp;nbsp; non-invariance &amp;lt; .80&lt;/font&gt;&lt;/div&gt;&lt;div style=&quot;font-size: 12px;&quot;&gt;&lt;div style=&quot;&quot;&gt;&lt;div style=&quot;&quot;&gt;&lt;font style=&quot;font-size: 10px;&quot;&gt;&lt;i&gt;PS: N = 1 (0%), SMC = 6 (3%)&lt;br&gt;&lt;/i&gt;&lt;/font&gt;&lt;/div&gt;&lt;font style=&quot;font-size: 10px;&quot;&gt;&lt;i&gt;PO: N = 1 (0%), SMC = 7 (1%)&lt;/i&gt;&lt;/font&gt;&lt;/div&gt;&lt;font style=&quot;font-size: 10px;&quot;&gt;&lt;i&gt;&lt;/i&gt;&lt;/font&gt;&lt;font style=&quot;font-size: 12px;&quot;&gt;&lt;/font&gt;&lt;/div&gt;" style="rounded=1;whiteSpace=wrap;html=1;fontSize=13;strokeWidth=1.5;fontColor=#000000;" parent="1" vertex="1">
          <mxGeometry x="2380" y="581.88" width="170" height="71.25" as="geometry" />
        </mxCell>
        <mxCell id="A4dsCjYomlzCwcdl2sC--60" value="&lt;div style=&quot;font-size: 12px;&quot;&gt;&lt;font style=&quot;font-size: 12px;&quot;&gt;No data available&lt;/font&gt;&lt;/div&gt;&lt;div style=&quot;font-size: 12px;&quot;&gt;&lt;div style=&quot;&quot;&gt;&lt;div style=&quot;&quot;&gt;&lt;font style=&quot;font-size: 10px;&quot;&gt;&lt;i&gt;PS: N = 0 (0%), SMC = 1 (0%)&lt;br&gt;&lt;/i&gt;&lt;/font&gt;&lt;/div&gt;&lt;font style=&quot;font-size: 10px;&quot;&gt;&lt;i&gt;PO: N = 3 (1%), SMC = 72 (11%)&lt;/i&gt;&lt;/font&gt;&lt;/div&gt;&lt;font style=&quot;font-size: 10px;&quot;&gt;&lt;i&gt;&lt;/i&gt;&lt;/font&gt;&lt;font style=&quot;font-size: 12px;&quot;&gt;&lt;/font&gt;&lt;/div&gt;" style="rounded=1;whiteSpace=wrap;html=1;fontSize=13;strokeWidth=1.5;fontColor=#000000;" parent="1" vertex="1">
          <mxGeometry x="2380" y="678.75" width="170" height="52.5" as="geometry" />
        </mxCell>
        <mxCell id="A4dsCjYomlzCwcdl2sC--61" value="&lt;div style=&quot;font-size: 12px;&quot;&gt;&lt;font style=&quot;font-size: 12px;&quot;&gt;Cannot test for MI&lt;br&gt;&lt;/font&gt;&lt;/div&gt;&lt;div style=&quot;font-size: 12px;&quot;&gt;&lt;div style=&quot;font-size: 13px;&quot;&gt;&lt;div style=&quot;&quot;&gt;&lt;div style=&quot;&quot;&gt;&lt;font style=&quot;font-size: 10px;&quot;&gt;&lt;i&gt;PS: N = 2 (1%), SMC = 9 (3%)&lt;br&gt;&lt;/i&gt;&lt;/font&gt;&lt;/div&gt;&lt;font style=&quot;font-size: 10px;&quot;&gt;&lt;i&gt;PO: N = 4 (2%), SMC = 66 (10%)&lt;/i&gt;&lt;/font&gt;&lt;/div&gt;&lt;/div&gt;&lt;font style=&quot;font-size: 10px;&quot;&gt;&lt;i&gt;&lt;/i&gt;&lt;/font&gt;&lt;/div&gt;" style="rounded=1;whiteSpace=wrap;html=1;fontSize=13;strokeWidth=1.5;fontColor=#000000;" parent="1" vertex="1">
          <mxGeometry x="2380" y="765" width="170" height="50" as="geometry" />
        </mxCell>
      </root>
    </mxGraphModel>
  </diagram>
</mxfile>
